<?xml version="1.0" encoding="UTF-8"?>
<svg xmlns="http://www.w3.org/2000/svg" xmlns:xlink="http://www.w3.org/1999/xlink" viewBox="0 0 850 385">
  <defs>
    <style>
      .cls-1 {
        fill: url(#linear-gradient-2);
      }

      .cls-2 {
        fill: #fff;
      }

      .cls-3 {
        fill: #caefd9;
      }

      .cls-4 {
        fill: url(#linear-gradient-6);
      }

      .cls-5 {
        fill: #0c844b;
      }

      .cls-6 {
        fill: #fff794;
      }

      .cls-7 {
        fill: url(#linear-gradient-10);
      }

      .cls-8 {
        fill: url(#radial-gradient);
      }

      .cls-9 {
        fill: url(#linear-gradient-5);
      }

      .cls-10 {
        clip-path: url(#clippath);
      }

      .cls-11 {
        fill: url(#radial-gradient-2);
      }

      .cls-12 {
        fill: none;
      }

      .cls-13 {
        fill: url(#linear-gradient-7);
      }

      .cls-14 {
        fill: url(#linear-gradient-9);
      }

      .cls-15 {
        fill: url(#linear-gradient-3);
      }

      .cls-16 {
        fill: url(#linear-gradient);
      }

      .cls-17 {
        fill: url(#linear-gradient-4);
      }

      .cls-18 {
        fill: url(#linear-gradient-8);
      }

      .cls-19 {
        fill: #729900;
      }
    </style>
    <linearGradient id="linear-gradient" x1="426.11" y1="209.96" x2="412.54" y2="-3.25" gradientUnits="userSpaceOnUse">
      <stop offset="0" stop-color="#acffeb"/>
      <stop offset=".22" stop-color="#88f4ed"/>
      <stop offset=".58" stop-color="#53e3f0"/>
      <stop offset=".85" stop-color="#31d8f3"/>
      <stop offset="1" stop-color="#25d5f4"/>
    </linearGradient>
    <clipPath id="clippath">
      <rect class="cls-12" width="850" height="286.91"/>
    </clipPath>
    <linearGradient id="linear-gradient-2" x1="421.98" y1="76.35" x2="423.01" y2="305.08" gradientUnits="userSpaceOnUse">
      <stop offset="0" stop-color="#5aa877"/>
      <stop offset=".38" stop-color="#3c825b"/>
      <stop offset=".78" stop-color="#226142"/>
      <stop offset="1" stop-color="#195539"/>
    </linearGradient>
    <linearGradient id="linear-gradient-3" x1="-24.64" y1="250.07" x2="460.76" y2="250.07" xlink:href="#linear-gradient-2"/>
    <linearGradient id="linear-gradient-4" x1="736.06" y1="208.05" x2="888.94" y2="208.05" xlink:href="#linear-gradient-2"/>
    <linearGradient id="linear-gradient-5" x1="255.58" y1="158.07" x2="828.72" y2="158.07" xlink:href="#linear-gradient-2"/>
    <linearGradient id="linear-gradient-6" x1="422.61" y1="161.05" x2="422.97" y2="239.62" gradientUnits="userSpaceOnUse">
      <stop offset="0" stop-color="#5aa877"/>
      <stop offset=".24" stop-color="#469972"/>
      <stop offset=".73" stop-color="#258169"/>
      <stop offset="1" stop-color="#197866"/>
    </linearGradient>
    <linearGradient id="linear-gradient-7" x1="202.85" y1="197.74" x2="343.42" y2="197.74" xlink:href="#linear-gradient-6"/>
    <linearGradient id="linear-gradient-8" x1="429.89" y1="209.83" x2="585.2" y2="209.83" xlink:href="#linear-gradient-6"/>
    <linearGradient id="linear-gradient-9" x1="710.48" y1="212.62" x2="881.12" y2="212.62" xlink:href="#linear-gradient-6"/>
    <linearGradient id="linear-gradient-10" x1="423" y1="242.04" x2="423" y2="261.03" gradientUnits="userSpaceOnUse">
      <stop offset="0" stop-color="#a2d100"/>
      <stop offset="1" stop-color="#729900"/>
    </linearGradient>
    <radialGradient id="radial-gradient" cx="534.29" cy="127.95" fx="534.29" fy="127.95" r="57.95" gradientTransform="scale(1 .77)" gradientUnits="userSpaceOnUse">
      <stop offset="0" stop-color="#fff" stop-opacity="0"/>
      <stop offset=".29" stop-color="#fff" stop-opacity=".01"/>
      <stop offset=".56" stop-color="#fff" stop-opacity=".06"/>
      <stop offset=".82" stop-color="#fff" stop-opacity=".13"/>
      <stop offset="1" stop-color="#fff" stop-opacity=".2"/>
    </radialGradient>
    <radialGradient id="radial-gradient-2" r="28.33" xlink:href="#radial-gradient"/>
  </defs>
  <g id="BACKGROUND">
    <rect class="cls-16" width="850" height="385"/>
  </g>
  <g id="OBJECTS">
    <g class="cls-10">
      <g>
        <path class="cls-2" d="M622.22,161.22c-2.75,0-5.35,.47-7.71,1.29-.83-4.09-5.42-7.23-10.97-7.23-4.01,0-7.52,1.64-9.47,4.1-2.29-4.22-7.69-7.18-14-7.18-5.36,0-10.06,2.15-12.76,5.38-.62-.07-1.25-.11-1.9-.11-6.55,0-12,3.6-13.21,8.36-3.39-1.22-7.17-1.9-11.16-1.9-5.56,0-10.72,1.32-14.98,3.58-1.67-5.75-8.32-10.04-16.29-10.04-2.89,0-5.6,.56-7.97,1.56-.93-9.94-11.7-17.78-24.84-17.78-5.63,0-10.81,1.44-14.98,3.86-3.43-4.08-9.38-6.79-16.17-6.79-9.71,0-17.73,5.55-19.04,12.75-2.2-.82-4.65-1.29-7.25-1.29-9.25,0-16.74,5.77-16.74,12.89s7.5,12.89,16.74,12.89c2.53,0,4.91-.44,7.06-1.22,0,.11-.02,.21-.02,.32,0,4.92,3.02,9.28,7.7,12.08,.15,9.88,10.31,17.9,23.04,18.33,2.28,16.91,20.84,30.09,43.4,30.09s41.5-13.46,43.46-30.62c5.13-.46,9.8-2.05,13.6-4.44,3.98,2.84,9.31,4.58,15.17,4.58,9.13,0,16.98-4.23,20.43-10.28,1.64,.37,3.38,.58,5.18,.58,6.49,0,12.18-2.59,15.46-6.5,2.48,.94,5.26,1.48,8.22,1.48,10.31,0,18.67-6.43,18.67-14.37s-8.36-14.37-18.67-14.37Z"/>
        <path class="cls-3" d="M647.72,184.92c-2.75,0-5.35,.47-7.71,1.29-.83-4.09-5.42-7.23-10.97-7.23-4.01,0-7.52,1.64-9.47,4.1-2.29-4.22-7.69-7.18-14-7.18-5.36,0-10.06,2.15-12.76,5.38-.62-.07-1.25-.11-1.9-.11-6.55,0-12,3.6-13.21,8.36-3.39-1.22-7.17-1.9-11.16-1.9-5.56,0-10.72,1.32-14.98,3.58-1.67-5.75-8.32-10.04-16.29-10.04-2.89,0-5.6,.56-7.97,1.56-.93-9.94-11.7-17.78-24.84-17.78-5.63,0-10.81,1.44-14.98,3.86-3.43-4.08-9.38-6.79-16.17-6.79-9.71,0-17.73,5.55-19.04,12.75-2.2-.82-4.65-1.29-7.25-1.29-9.25,0-16.74,5.77-16.74,12.89s7.5,12.89,16.74,12.89c2.53,0,4.91-.44,7.06-1.22,0,.11-.02,.21-.02,.32,0,4.92,3.02,9.28,7.7,12.08,.15,9.88,10.31,17.9,23.04,18.33,2.28,16.91,20.84,30.09,43.4,30.09s41.5-13.46,43.46-30.62c5.13-.46,9.8-2.05,13.6-4.44,3.98,2.84,9.31,4.58,15.17,4.58,9.13,0,16.98-4.23,20.43-10.28,1.64,.37,3.38,.58,5.18,.58,6.49,0,12.18-2.59,15.46-6.5,2.48,.94,5.26,1.48,8.22,1.48,10.31,0,18.67-6.43,18.67-14.37s-8.36-14.37-18.67-14.37Z"/>
        <path class="cls-2" d="M847.98,138.21c-5.29-.65-10.45,.09-14.84,1.88-2.42-4.24-7.48-7.48-13.86-8.27-9.13-1.13-17.75,3.15-20.39,9.77-1.9-1.02-4.12-1.75-6.56-2.05-8.69-1.08-16.87,3.48-18.27,10.17-1.4,6.69,4.51,12.99,13.21,14.07,2.38,.29,4.71,.16,6.88-.32-.02,.1-.06,.19-.08,.29-.97,4.62,1.02,9.07,4.87,12.25-1.8,9.3,6.18,18.02,18.05,19.91-1.17,16.15,13.68,30.7,34.88,33.33,1.72,.21,3.44,.33,5.14,.38v-88.75c-2.66-1.31-5.7-2.24-9.02-2.65Z"/>
        <path class="cls-3" d="M850.63,146.28c-5.25,.81-9.75,2.89-13.06,5.75-4.19-3.32-10.4-5-16.73-4.03-9.07,1.39-15.21,7.72-14.69,14.63-2.25-.45-4.65-.53-7.08-.16-8.63,1.32-14.24,7.79-12.52,14.43,1.72,6.65,10.11,10.96,18.74,9.64,2.36-.36,4.48-1.12,6.3-2.15,.02,.1,.03,.2,.06,.3,1.19,4.59,5.06,8.23,10.11,10.18,2.53,9.21,13.96,15.24,25.95,13.81,1.9,4.72,5.11,8.9,9.29,12.34v-75.03c-2.08-.12-4.22-.03-6.37,.3Z"/>
        <path class="cls-2" d="M177.64,130.04c-3.37-7.5-13.99-11.48-23.74-8.89-2.6,.69-4.86,1.79-6.73,3.16-2.52-3.66-8.19-5.47-13.43-4.08-3.79,1.01-6.41,3.44-7.22,6.25-3.95-3.41-10.32-4.86-16.28-3.27-.66,.17-1.28,.39-1.88,.63-.16-.5-.35-1-.57-1.5-4.29-9.56-17.83-14.63-30.24-11.33-9.49,2.52-15.57,9.22-15.99,16.5-4.26-.76-8.84-.64-13.28,.54-8.54,2.27-14.35,7.86-15.86,14.25-6.49-4.25-15.65-5.82-24.28-3.52-5.32,1.41-9.61,4.08-12.53,7.41-1.97-1.18-4.22-2.06-6.61-2.59v52.08c5.52,7.23,16.88,10.83,27.62,8.37,9.33,15.4,32.46,23.2,53.78,17.53,21.54-5.73,33.51-23.15,28.09-39.86,4.65-1.73,8.4-4.4,10.98-7.62,4.97,1.69,10.74,1.99,16.28,.52,8.63-2.3,14.26-8.27,14.95-14.86,1.71-.06,3.44-.3,5.14-.76,6.13-1.63,10.41-5.51,11.86-10.03,2.74,.26,5.6,.08,8.4-.66,9.74-2.59,14.91-10.77,11.55-18.28Z"/>
        <path class="cls-3" d="M150,158.3c-3.37-7.5-13.99-11.48-23.74-8.89-2.6,.69-4.86,1.79-6.73,3.16-2.52-3.66-8.19-5.47-13.43-4.08-3.79,1.01-6.41,3.44-7.22,6.25-3.95-3.41-10.32-4.86-16.28-3.27-.66,.17-1.28,.39-1.88,.63-.16-.5-.35-1-.57-1.5-4.29-9.56-17.83-14.63-30.24-11.33-9.49,2.52-15.57,9.22-15.99,16.5-4.26-.76-8.84-.64-13.28,.54-8.54,2.27-14.35,7.86-15.86,14.25-4.37-2.86-9.96-4.5-15.77-4.57v66.36c9.34,15.38,32.45,23.15,53.75,17.48,21.54-5.73,33.51-23.15,28.09-39.86,4.65-1.73,8.4-4.4,10.98-7.62,4.97,1.69,10.74,1.99,16.28,.52,8.63-2.3,14.26-8.27,14.95-14.86,1.71-.06,3.44-.3,5.14-.76,6.13-1.63,10.42-5.51,11.86-10.03,2.75,.26,5.61,.08,8.4-.66,9.74-2.59,14.91-10.77,11.55-18.28Z"/>
        <path class="cls-3" d="M264.81,48.36c-.45,0-.89,.03-1.32,.07-1.65-3.34-5.84-5.71-10.75-5.71-.9,0-1.77,.09-2.61,.24,.32-1,.51-2.04,.51-3.11,0-7.13-7.51-12.91-16.76-12.91s-16.6,5.67-16.75,12.7c-.07,.02-.15,.03-.22,.04-1.7-3.41-5.97-5.83-10.99-5.83-6.51,0-11.78,4.06-11.78,9.07,0,.32,.02,.63,.06,.94-.61-.05-1.23-.08-1.86-.08-6.05,0-11.36,2.39-14.47,6-.93-.19-1.9-.29-2.9-.29-5.61,0-10.26,3.12-11.23,7.22h112.11c-.11-4.62-5.01-8.34-11.04-8.34Z"/>
        <path class="cls-3" d="M708.31,112.01c-.85,0-1.66,.09-2.44,.25-1.4-3.06-5.18-5.26-9.63-5.26-.65,0-1.29,.05-1.91,.14-.52-4.02-4.93-7.15-10.28-7.15-3.99,0-7.44,1.74-9.16,4.29-1.64-.36-3.37-.56-5.16-.56-.43,0-.86,.03-1.28,.05-1.21-4.23-6.1-7.4-11.95-7.4-6.76,0-12.24,4.22-12.24,9.43,0,.78,.14,1.53,.37,2.25-.64-.06-1.29-.11-1.96-.11-5.36,0-10.08,2.12-12.83,5.32-.82-.17-1.69-.26-2.58-.26-4.98,0-9.11,2.76-9.96,6.41h100.83c-.1-4.1-4.44-7.4-9.79-7.4Z"/>
        <path class="cls-3" d="M793.65,49.39c-.89,0-1.75,.09-2.58,.26-2.76-3.2-7.47-5.32-12.83-5.32-.67,0-1.32,.04-1.96,.11,.23-.72,.37-1.48,.37-2.25,0-5.21-5.48-9.43-12.24-9.43-5.86,0-10.74,3.17-11.95,7.4-.43-.02-.85-.05-1.28-.05-1.79,0-3.52,.2-5.16,.56-1.72-2.55-5.18-4.29-9.16-4.29-5.35,0-9.75,3.13-10.28,7.15-.62-.09-1.26-.14-1.91-.14-4.45,0-8.23,2.2-9.63,5.26-.78-.16-1.6-.25-2.44-.25-5.35,0-9.69,3.3-9.79,7.4h100.83c-.86-3.64-4.99-6.41-9.96-6.41Z"/>
        <path class="cls-3" d="M437.08,66.17c-1.03,0-2.03,.11-2.99,.3-3.2-3.71-8.66-6.16-14.87-6.16-.77,0-1.53,.05-2.27,.12,.27-.84,.43-1.71,.43-2.61,0-6.03-6.35-10.92-14.19-10.92-6.78,0-12.44,3.66-13.84,8.56-.49-.03-.99-.04-1.49-.04-2.08,0-4.08,.23-5.98,.64-2-2.95-6-4.96-10.61-4.96-6.2,0-11.3,3.63-11.91,8.29-.72-.11-1.46-.17-2.22-.17-5.16,0-9.54,2.55-11.16,6.09-.91-.18-1.85-.29-2.83-.29-6.2,0-11.23,3.83-11.35,8.58h116.83c-.99-4.22-5.78-7.42-11.55-7.42Z"/>
        <g>
          <g>
            <path class="cls-1" d="M740.09,141.82c-2.66-.05-5.35-.02-8.09,.12-11.87,.59-28.11,5.46-46.75,12.17-54.68,19.67-130.01,55.12-176.16,44.59-58.85-13.42-95.54-46.06-144.91-74.14-23.4-13.31-48.33-27.63-77.38-28.77-9.11-.35-17.95,.6-26.55,2.46-12.72,2.75-24.93,7.47-36.77,12.85-9.05,4.1-17.88,8.58-26.57,12.84-35.33,17.35-72.73,32.2-111.55,44.34-8.34,2.6-68.8,21.16-96.36,22.42v229.58c121.28,1.49,718.46,6.4,868,1.59V185.53c-38.69-14.01-71.24-42.7-116.91-43.72Z"/>
            <path class="cls-15" d="M262.87,325.22c-11.06-7.52-15.69-20.17-11.35-31.02,2.11-5.27,6.17-10.56,4.51-15.92-1.55-4.99-7.55-8.28-13.07-11.15-11.97-6.21-25.02-14.45-24.78-25.56,.06-2.78,.99-5.54,.72-8.31-.72-7.34-9.3-12.47-14.92-18.43-9.13-9.68-10.57-23.33-3.58-34.02,1.49-2.28,3.37-4.55,3.45-7.1,.21-6.92-11.79-9.91-15.88-16.08-6.41-9.67,7.64-20.29,14.82-27.07,6.35-6,14.95-12.32,20.69-19.46-9.05,4.1-17.88,8.58-26.57,12.84-35.33,17.35-72.73,32.2-111.55,44.34-8.34,2.6-68.8,21.16-96.36,22.42v169.31c8.65,5.97,17.97,11.33,28.16,15.6,37.55,15.72,82.94,15.25,125.24,10.53,46.27-5.16,93.99-15.95,126.54-41.79,2.49-1.97,4.99-4.22,5.33-6.96,.65-5.2-6.32-8.71-11.4-12.17Z"/>
            <path class="cls-17" d="M857,185.53c-38.69-14.01-71.24-42.7-116.91-43.72-2.58,5.13-3.42,11.31-3.87,15.7-.73,7.06,.91,14.51,6.36,20.21,3.23,3.36,7.68,6.04,10.3,9.7,2.35,3.28,3.05,7.09,4.1,10.76,2.18,7.52,6.06,14.74,11.42,21.24,7.1,8.6,16.92,15.99,28.81,20.45,4.87,1.82,10.05,3.16,14.78,5.19,5.9,2.54,10.95,6.09,15.9,9.64,9.43,6.76,18.81,13.65,29.11,19.57v-88.75Z"/>
            <path class="cls-9" d="M685.25,154.1c-13.81,11.77-27.87,23.36-42.17,34.78-3.79,3.03-7.78,6.13-12.9,7.58-7.85,2.21-16.61,.09-24.89,.95-9.87,1.03-18.11,6.15-27.35,9-6.54,2.02-13.56,2.9-20.51,3.75-23.42,2.9-46.85,5.8-70.27,8.69-8,.99-16.11,1.98-24.18,1.4-9.76-.7-18.98-3.67-27.92-6.76-7.68-2.66-15.46-5.54-21.43-10.12-5.34-4.1-9.18-9.49-15.68-12.42-13.06-5.9-30.82,.56-44.44-4.53-6.22-2.33-10.67-6.76-16.48-9.65-11.17-5.53-27.97-5.91-33.5-15.21-4.21-7.07,.41-16.71-6.54-22.35-2.55-2.07-6.18-3.1-9.64-4.12-13.04-3.87-27.35-9.65-30.85-20.99-2.18-7.04-.29-11.98,3.75-15.88,8.6-1.86,17.44-2.81,26.55-2.46,29.05,1.14,53.98,15.46,77.38,28.77,49.37,28.07,86.06,60.71,144.91,74.14,46.15,10.53,121.48-24.92,176.16-44.59Z"/>
          </g>
          <g>
            <path class="cls-4" d="M710.48,195.02c-4.94,.82-9.57,2.02-13.81,3.67-25.96,10.16-66.05,22.71-111.47,22.85-25.73,.08-53.17-3.83-80.72-14.41-33.89-13.01-56.46-15.77-74.59-13.28-22.63,3.1-38.36,14.38-60.57,24.06-9.65,4.21-17.93,5.41-25.9,4.4-25.08-3.14-47.21-28.01-100.09-49.06-10.63-4.23-22.52-5.42-35.49-4.58-57.22,3.71-135.44,46.88-218.84,42.47v67.65H857v-62.78c-39.75-6.9-104.4-27.99-146.52-21Z"/>
            <path class="cls-13" d="M343.42,222.31c-.46,.25-.93,.49-1.43,.71-3.17,1.39-6.84,1.89-10.45,2.28-23.41,2.59-47.21,1.79-70.85,.99-5.24-.18-10.92-.49-14.88-3.13-2.7-1.8-4.18-4.43-6.46-6.55-5.72-5.33-15.48-6.73-22.94-10.58-8.02-4.13-13.21-11.33-13.54-18.75-.18-4.1,1.03-8.15,2.3-12.14,.73-2.29,1.62-4.44,2.67-6.45,12.97-.84,24.86,.35,35.49,4.58,52.88,21.04,75.01,45.92,100.09,49.06Z"/>
            <path class="cls-18" d="M585.2,221.54c-3.2,1.12-6.57,2.01-9.95,2.74-8.98,1.96-18.44,2.99-27.68,1.95-14.06-1.59-27.62-7.92-41.58-5.87-9.81,1.44-20.1,6.86-28.81,3.11-2.12-.92-3.83-2.29-5.82-3.36-7.16-3.86-16.85-3.28-24.91-5.88-9.46-3.06-16.51-12.02-16.56-20.37,18.13-2.49,40.7,.27,74.59,13.28,27.55,10.58,54.99,14.48,80.72,14.41Z"/>
            <path class="cls-14" d="M857,216.02c-39.75-6.9-104.4-27.99-146.52-21,2.47,10.4,19.66,18.07,29.74,23.83,4.44,2.54,8.37,5.64,13.18,7.75,8.52,3.73,18.8,3.96,28.6,4.1,21.73,.3,43.46,.59,65.2,.89,3.24,.04,6.53,.08,9.8,0v-15.57Z"/>
          </g>
        </g>
        <g>
          <path class="cls-19" d="M705.37,240.47c-1.59-.86-4.47-.46-4.81,.96-.42-1.26-.95-2.64-2.45-3.36-1.5-.71-4.13-.06-3.97,1.23-.16-1.17-2.72-1.05-3.86-.21-1.14,.84-1.96,2.09-3.55,2.31-1.29,.18-2.53-.42-3.51-1.06-.98-.64-1.95-1.38-3.24-1.57-1.29-.19-2.91,.56-2.62,1.49-.71-.81-1.57-1.7-2.88-1.85-1.31-.15-2.7,1.1-1.75,1.76-.97-1.67-5.14-1.35-5.6,.44l-1.67-.38c-1.8-.41-3.77,.4-4.05,1.75v.03c-1.39-1.4-5.08-.77-5.46,.94-2.48-.73-5.18-1.07-7.86-.99-4.57-.39-8.95,1.24-4.92,4.88,3.61,.84,11.84-.37,15.64-.39,6.9-.03,13.8,.55,20.5,1.73,1.65,1.09,4.5,1.02,6.06-.14,.8-.6,1.34-1.46,2.44-1.71,.7-.16,1.46-.01,2.17,.13,2.56,.52,5.11,1.05,7.67,1.57-.23-.9,1.83-.86,2.97-.45s3.27,0,2.57-.77l3.75,1.8c-.5-.42,.29-1.08,1.06-1.1,1.28-.04,2.42,.82,3.86-.13,.75-.5,1.13-1.28,.73-1.96-.69-1.18-3.01-1.03-4.29-.56-.44-1.23-1.35-3.54-2.93-4.4Z"/>
          <path class="cls-19" d="M311.87,239.92c-3.73,.95-1.21-6.49-10.54-6.74-10.23-.28-7.39,3.88-9.33,4.06-5.43,.5-7.76-.46-12.62-2.43-1.79-.72-3.94-.15-4.78,1.26l-.03,.06s-.02-.03-.02-.04c-1.18-1.87-4.82-1.47-5.47,.54l-.1,.32c-1.27-1.26-2.67-2.58-4.66-3.01-1.99-.42-4.59,.63-4.43,2.21-3.9-2.65-10.01-3.17-14.56-1.24-1.48-7.4-13.14-3.04-13.14-3.04-3.26-5.6-8.83-3.72-12.01-.92,2.4-2.93-4.05-5.24-7.49-5.98-6.5-1.39-6.48,.32-7.54,1.84,0,0-3.43-4.87-10.57-3.15-2.27,.55-3.87,2.13-4.17,3.95l-.11,.69c-2.39-1.31-5.08-2.68-8-2.43-2.92,.25-5.14-.39-4.78,2.15-2.17-6.42-9.55-1.74-9.55-1.74-5.12-5.96-13.2,.55-13.2,.55,0,0-.75-3.94-5.58-3.06-1.43,.26-3.69,2.42-3.28,3.51-2.06-1.39-2.46-1.34-5.36-.75-1.56,.32-2.71,1.44-2.52,2.67,.21,1.38,1.78,1.91,3.21,2.36,11.21,3.48,23.39,7.03,35.09,4.68,1.76-.35,3.57-.84,5.36-.58,1.6,.23,2.95,1.03,4.48,1.44,1.43,.38,2.97,.41,4.48,.43,3.7,.06,7.4,.11,11.1,.17,3.66,3.42,11.21,3.75,15.35,.67,6.35,3.12,14.6,3.81,21.67,1.83,4.7,1.19,9.4,2.38,14.1,3.57,.96,.24,1.97,.49,2.97,.36,1.02-.13,1.88-.64,2.82-.97,2.24-.78,4.82-.56,7.26-.31,6.92,.69,13.84,1.39,20.76,2.08,3.6,.36,7.71,.6,10.38-1.28,5.52,2.66,36.73,5.9,42.45,3.5,5.1,3.02,.33-8.73-6.93-5.38-3.06-6.24-6.43-4.05-9.8-1.95h0c.12-1.14-.96-2.15-2.43-2.26-.97-.08-2.09-.25-3.16-.46-2.48-.47-4.94,.82-5.29,2.76v.04Z"/>
          <path class="cls-19" d="M466.98,238.63c-.36-.54,.06-3.91-4.64-4.04-1.35-.04-3.59,2.74-3.97,1.74-.38-1-2.53-1.9-3.76-2.33-1.23-.44-2.84,1.32-2.53,2.33-1.13-.48-2.08-2.4-3.98-1.41-.86,.48-.03,1.92-.05,2.89-.52-1.35-2.57-2.23-4.33-1.84-7.05,.37-7.07,4-6.22,5.81,.51,1.08,7.4,1.75,8.81,1.98,.72,1.69,21.97-3.17,20.67-5.13Z"/>
          <path class="cls-19" d="M521.53,235.4c-.04-.84-1.86-3.89-5.36-3.25-4.83,.57-3.59,3.89-5.1,3.25-.71-.31-1.03-1.43-1.9-1.53-1.73-.18-1.43,.38-1.69,.97-.11-.15-2.31-3.08-4.06-.07,0,0-.83-2.57-2.13-3.44-2.71-1.8-7.39,1.78-6.68,4.49-5.11-5.7-8.27-1.37-8.27-1.37-8.17-2.57-10.5,2.66-7.5,4.49,2.43-.42,13.76,1.62,14.88,3.33,.87,.96,2.71,1.29,4.05,.73,.44-.18,.85-.45,1.35-.45,.52,0,.95,.3,1.41,.5,2.75,1.17,6.68-1.45,9.08,.1,.25-.59,.5-1.18,.75-1.77,3.64,.77,18.69-2.19,22.33-1.42,1.15-2.08-2.67-6.67-11.14-4.58Z"/>
          <path class="cls-19" d="M426.81,240.47c-2.52-.48-5.78,1.31-5.71,1.12,.48-1.4-1.83-2.42-3.23-1.44-.46,.32-1.44,.42-1.48,.27-.28-1.07-1.91-1.46-3.03-.79-.11,.07-.76-3.45-4.47-2.33-3.06,.73-1.67,2.61-.06,3.47-1.63-1.53-5.66-2.68-6.54,.27-.1,.71,.11,1.44,.6,2.04-1.47-.18-3.66-3.01-6.71,.56,0,0-9.54-1.78-6.7,2.59-1.43,2.67,10.5-.07,12.74,.36-.67,.7-.51,1.79,.34,2.36s2.27,.54,3.08-.07c.07-.55,.38-1.08,.88-1.48,1.09,1.02,2.36,2.12,4.07,2.25,1.71,.13,3.48-1.48,2.39-2.5,1.32,1.48,3.72,2.34,6.04,2.17,.65-1.15,.11-2.63-1.22-3.35,2.34-1.15,8.76-.47,10.57-2.11,.82-.74,.9-2.9-1.55-3.37Z"/>
          <path class="cls-19" d="M738.99,244.72c2.15-1.3-.45-3.84-3.56-3.49,0,0,.01-.02,.02-.02,1.03-1.19-.66-2.57-3.03-2.61l-1.04-.02s-2.08-2.32-5.54,.07c-1.21,.84-.49,2.24,1.02,2.91-2.78-.43-5.62,1.1-5.75,2.7-.13,1.6,1.72,3.06,3.95,4.08,2.4,1.09,6.75,1.58,8.05,.01,1.58,.76,3.49,1.3,5.53,1.56l.32-1.57c2.05,.39,4.54-.59,4.55-1.79,.02-1.2-2.44-2.2-4.51-1.83Z"/>
          <path class="cls-7" d="M572.77,241.31c-27.18-2.32-54.53-4-81.87-3.69-34.23,.4-68,5.95-102.15,7.85-66.82,3.72-133.41-6.6-200.02-12.16-19.92-1.66-39.93-2.84-59.97-3.12-35.94-.49-72.32,1.9-106.77,10.17-9.24,2.22-27.03,4.67-32.99,11.69v46.24c169.55-4.3,339.09-8.59,508.64-12.89,56.83-1.44,113.65-2.88,170.49-3.93,62.95-1.16,125.91-1.85,188.87-2.47v-37.69c-79.65,8.53-228.61,4.76-284.23,0Z"/>
          <path class="cls-5" d="M857,254.97c-1.41-.87-3.16-1.56-5.5-1.89-13.5-1.67-12.08,3.69-18.47,4.15,.81-1.21-.94-4.24-2.7-4.41-4-.38-6.24,2.16-8,2.31-4.03,.33-5.02-2.63-9-3.21-5.9-.86-12.32,4.26-17.01,2.87-1.77-.53-3.86-.2-4.96,.98-.08,.08-.14,.17-.2,.25-5.43-5.9-11.83-2.82-13.51,1.17l-.41-.93c-.78-1.76-4.01-1.77-4.8,0l-.02,.05v-.04c.55-2.04-3-3.17-4.45-1.41-.58,.71-.95,1.52-1.04,2.35-4.93-5.3-18-5.93-18.75-.75-.73-2.03-4.02-.71-5.81,.91-.02,0-.02,0-.03,0-1.65-1.63-4.52-2.23-7.12-1.51-.76,.21-1.6,.01-1.99-.53h0c-.01-1.22-1.93-1.83-3.03-.97-4.14,3.24-11.23,4.36-16.62,2.51-2.22-.77-4.84-.2-6.19,1.36l-.07,.08c-.11-2.4-3.81-3.67-6.93-3.82-3.12-.15-6.57,.16-9.06-1.29-2.89-1.68-8.34,.24-7.11,3.11-3.21-.73-6.43-1.45-9.64-2.18-2.79-.63-6.93-.68-7.41,1.53-5.78-3.24-14.56-2.76-19.68,1.08-1.77-2-6.45-1.05-7.27,1.12,0-1.02-1.71-1.94-3.22-1.86-.82,.04-1.6,.24-2.37,.46-1.94-.23-4.02-.19-5.9-.14-.59-.1-1.15-.2-1.74-.3-2.02-.87-4-2-6.25-2.33-3.33-.49-6.93,.78-10.33,1.8h0c-.39-1.68-3.44-1.72-3.96-.09-.12,.36-.21,.73-.27,1.1-.17,.02-.52-.15-.95-.43-1.91-1.23-4.81-.67-5.68,1.13l-.04,.09c-3.51-5.15-6.68-5.28-10.84-3.22-.57-1.28-1.82-2.84-4.5-2.95-4.17,.64-4.17,2.69-3.49,4.21-1.64-2.45-2.94-3.18-5.01-2.29-2.67,.77-3.65,3.4-1.92,4-4.46-1.63-10.65-3.29-12.16,.16-.13,.04-.19,.06-.32,.09-3.13-1.41-6.22-1.52-8.91-.81-.81,.08-1.57,.34-2.13,.82-.05,0-.06,0-.11,0l-.03-.03c-1.45-1.4-3.8-2.03-6.07-1.64-1,.17-2.07,.09-2.96-.32,0,0,0,0,0,0-.02-1.26-1.87-1.94-3.16-1.18-3.1,1.82-7.73,1.82-12.04,.55-3.8-1.13-8.1-.08-10.33,2.54l-.03,.03c-.11-2.4-4.16-2.63-7.28-2.78-3.12-.15-4.06,.01-6.56-1.44-2.89-1.68-.5-4.25-5.83-4.25-7.17,.53-8.49,4.38-6.06,6.99l-7.36-1.66c-2.79-.63-6.93-.68-7.41,1.53-5.78-3.24-14.56-2.76-19.68,1.08-1.96-2.22-9.46-2.66-9.34,.02-2.36-2.3-4.32-4.74-9.82-2.05-5.28,2.59-9-6.99-13.17-.13-.49-1.89-3.17-4.11-5.9-3.48-2.93,.91-3.64,2.46-3.77,4.76-1.88-1.19-8-5.52-9.08-1.15-4.06-.05-3.68-.3-6.33-1.84-2.52-1.47-6.17-.31-6.62,2.1l-.02,.13c-.2,1.09-2.05,1.33-2.69,.38l-.09-.13c-1.31-1.94-5.16-1.26-5.17,.93,0,.04,0,.07,0,.11-3.85-1.57-12.26-3.72-14,1.02-6-6.92-10.62-.58-10.69-.63-11.64-6.04-17.43-.05-17.43-.26,0-2.18-2.16-2.44-4.22-2.44-1.82,0-2.9,1.17-3.41,.94-1.51-.68-1.19-1.23-2.86-1.44-.71-.09-1.44-.03-2.12,.14-4.35,1.08-6.26,.7-10.38,1.64,0,0-6.06-3.85-7.9,1.28,.17-3.59-5.83-4.49-12.17-2.31-6.39,.46-12.83-3.59-16.93,2.63,.81-1.21-1.28-2.51-3.04-2.41-1.77,.1-3.36,.91-5.12,1.06-4.03,.33-7.16-2.79-11.14-3.37-5.9-.86-12.67,3.79-17.59,2.79-1.61-.33-3.29,.28-4.04,1.42l-.02,.03c-5.95-5.99-12.22-4.06-13.62-.75l-.41-.93c-.78-1.76-4.01-1.77-4.8,0l-.02,.05c.34-1.24-.32-2.62-1.63-3.39-3.48-.83-4.7,1.6-3.87,4.3-4.27-3.98-10.78-4.49-18.75-.75-.74-2.04-4.05-.7-5.84,.91h0c-1.66-1.63-4.52-2.22-7.12-1.51-.76,.21-1.6,.01-1.99-.53h0c-.02-1.27-1.92-1.91-3.18-1.11-4.1,2.6-10.93,2.59-16.23,.8-2.27-.76-4.91-.26-6.28,1.33l-.21,1.96c-.11-2.4-3.81-3.67-6.93-3.82-3.12-.15-6.57,.16-9.06-1.29-.67-.39-1.2-.86-1.61-1.39-2.02-2.59-7.46-.98-6.5,1.95,.4,1.21-4.96,1.21-8.64,.38-2.79-.63-6.93-.68-7.41,1.53-5.78-3.24-14.56-2.76-19.68,1.08-1.96-2.22-7.53-.81-7.4,1.87-2.36-2.3-8.46-5.62-12.27-5.53-6.25,.16-7.71,3.19-13.96,3.35-1.6-5.2-8.36-3.36-8.37-1.17,0,0,0,0,0,0-1.17-2.95-7.19-1.7-7.67,.13-4-.05-6.69-1.68-9.83-2.05-2.38-.29-5.12,1.96-5.46,3.8-1.39-6.06-8.05-2.84-8.04-.72,0,0-11.24-3.77-12.98,.97-12.1-5.69-24.38,5.09-13.86,11.22,4.24,2.47,663.02,1.83,860.33,1.66v-13.89Z"/>
          <path class="cls-5" d="M640.12,258.31s0,.08-.01,.12c-.02,0-.04,0-.06,0,.03-.04,.04-.08,.07-.13Z"/>
        </g>
        <path class="cls-2" d="M563.51,31.9c-.98,0-1.93,.11-2.84,.3-.84-3.77-5.1-6.64-10.24-6.64-.53,0-1.06,.04-1.57,.1-.25-3.06-3.55-5.49-7.6-5.49-2.9,0-5.43,1.25-6.71,3.09-1.46-.36-3.01-.55-4.62-.55-6.14,0-11.42,2.8-13.83,6.83-.97-.32-2.04-.49-3.16-.49-3.37,0-6.26,1.58-7.49,3.82-.74-.11-1.5-.18-2.29-.18-6.3,0-11.41,3.89-11.52,8.72h82.68c.06-.36,.11-.73,.11-1.11,0-4.64-4.89-8.41-10.92-8.41Z"/>
        <path class="cls-2" d="M197.61,55.78c-1.24,0-2.44,.13-3.59,.36-2.06-4.49-7.6-7.72-14.14-7.72-.96,0-1.9,.08-2.81,.21-.77-5.89-7.23-10.5-15.09-10.5-5.85,0-10.91,2.55-13.44,6.28-2.41-.53-4.95-.81-7.58-.81-.64,0-1.26,.02-1.89,.05-1.78-6.2-8.95-10.84-17.54-10.84-9.93,0-17.97,6.2-17.97,13.84,0,1.14,.2,2.24,.53,3.3-.94-.09-1.9-.14-2.87-.14-7.88,0-14.81,3.1-18.86,7.81-1.2-.24-2.46-.38-3.77-.38-7.31,0-13.37,4.06-14.63,9.4H211.98c-.15-6.02-6.52-10.87-14.38-10.87Z"/>
        <path class="cls-2" d="M740.74,52.47c-1.01,0-1.99,.11-2.93,.29-1.68-3.67-6.2-6.3-11.54-6.3-.79,0-1.55,.06-2.29,.17-.63-4.81-5.9-8.57-12.32-8.57-4.77,0-8.91,2.08-10.97,5.13-1.97-.43-4.04-.66-6.19-.66-6.29,0-11.97,1.97-16.08,5.16-3.57-1.86-7.87-2.96-12.51-2.96-8.56,0-15.98,3.72-19.72,9.17-.84-.14-1.71-.23-2.61-.23-5.96,0-10.91,3.31-11.94,7.68h120.84c-.12-4.92-5.32-8.87-11.74-8.87Z"/>
        <g>
          <ellipse class="cls-8" cx="534.29" cy="98.52" rx="57.95" ry="44.62"/>
          <ellipse class="cls-11" cx="534.29" cy="98.52" rx="28.33" ry="21.82"/>
          <ellipse class="cls-6" cx="534.29" cy="98.52" rx="15.49" ry="11.93"/>
        </g>
      </g>
    </g>
  </g>
</svg>